/* XPM */
static char *result[] = {
/* columns rows colors chars-per-pixel */
"50 50 195 2 ",
"   c #37181B",
".  c #1C1724",
"X  c #1D1C25",
"o  c #1D1E2D",
"O  c #161D2E",
"+  c #1C1E31",
"@  c #151D30",
"#  c #261D25",
"$  c #211D2D",
"%  c #281925",
"&  c #261432",
"*  c #221E33",
"=  c #291C35",
"-  c #251C39",
";  c #2C1D3A",
":  c #321D3E",
">  c #1D212D",
",  c #19212A",
"<  c #1D2233",
"1  c #1C2B33",
"2  c #1F273E",
"3  c #1D2A3B",
"4  c #152330",
"5  c #232527",
"6  c #282027",
"7  c #23212D",
"8  c #28212C",
"9  c #21282B",
"0  c #2C2E2D",
"q  c #32262E",
"w  c #312F2C",
"e  c #38322D",
"r  c #222134",
"t  c #292334",
"y  c #242439",
"u  c #2B233B",
"i  c #242A3D",
"p  c #2B2C3D",
"a  c #242A36",
"s  c #3B2D37",
"d  c #32243D",
"f  c #322C3E",
"g  c #3E3532",
"h  c #35333C",
"j  c #4A3128",
"k  c #443229",
"l  c #5A3A2D",
"z  c #44373D",
"x  c #44383E",
"c  c #4C373A",
"v  c #2D1E41",
"b  c #321D45",
"n  c #252D44",
"m  c #242D49",
"M  c #282244",
"N  c #342341",
"B  c #3B2443",
"V  c #332941",
"C  c #3C2C47",
"Z  c #3C2C4A",
"A  c #3B214D",
"S  c #2E3144",
"D  c #25324F",
"F  c #2A324B",
"G  c #293647",
"H  c #333546",
"J  c #3B3743",
"K  c #333943",
"L  c #3F3840",
"P  c #333649",
"I  c #343A4B",
"U  c #3B3B4B",
"Y  c #3F2B51",
"T  c #273452",
"R  c #293552",
"E  c #2D3C52",
"W  c #2C3D5A",
"Q  c #333D52",
"!  c #323E58",
"~  c #3A3D50",
"^  c #463940",
"/  c #4C3D42",
"(  c #44324C",
")  c #573D6A",
"_  c #583E6B",
"`  c #3F404C",
"'  c #304056",
"]  c #384055",
"[  c #35435E",
"{  c #3A445E",
"}  c #344362",
"|  c #3A4562",
" . c #3E4B66",
".. c #3F4A68",
"X. c #43454C",
"o. c #49434D",
"O. c #524445",
"+. c #42475C",
"@. c #434A5C",
"#. c #4A4853",
"$. c #554B50",
"%. c #4C5055",
"&. c #55505F",
"*. c #7E504D",
"=. c #604E50",
"-. c #635954",
";. c #444B63",
":. c #464E6A",
">. c #4D5165",
",. c #4C536C",
"<. c #515264",
"1. c #52566A",
"2. c #555A6D",
"3. c #5A5D6E",
"4. c #4B5271",
"5. c #555C74",
"6. c #5B5E74",
"7. c #5B5D79",
"8. c #655660",
"9. c #55606B",
"0. c #5D6275",
"q. c #566078",
"w. c #5C6279",
"e. c #6D686C",
"r. c #7A686D",
"t. c #606276",
"y. c #6C6472",
"u. c #606479",
"i. c #6A6876",
"p. c #726671",
"a. c #706D78",
"s. c #796575",
"d. c #9B4B53",
"f. c #B77453",
"g. c #847B7D",
"h. c #D87442",
"j. c #C17955",
"k. c #C26A6E",
"l. c #897985",
"z. c #89838B",
"x. c #99868A",
"c. c #918A94",
"v. c #9F8B97",
"b. c #978F9B",
"n. c #9B949D",
"m. c #939495",
"M. c #A1918E",
"N. c #A69697",
"B. c #A2949C",
"V. c #A99995",
"C. c #B39C97",
"Z. c #B29D9B",
"A. c #A0A79C",
"S. c #A2A596",
"D. c #BCA39E",
"F. c #9397A5",
"G. c #A79EA7",
"H. c #AC9DA8",
"J. c #B79FA4",
"K. c #A8A0A0",
"L. c #A6A3AE",
"P. c #ACA0AD",
"I. c #BEA6A2",
"U. c #BDA2AC",
"Y. c #ADA7B1",
"T. c #BAA7B7",
"R. c #B7ACB6",
"E. c #C2A69E",
"W. c #C6A897",
"Q. c #C2A7A0",
"!. c #C6A7AC",
"~. c #C9AEAB",
"^. c #C2AEB9",
"/. c #CCB3B9",
"(. c #D6B3BF",
"). c #D6BFBB",
"_. c #D5BAB3",
"`. c #D6C1BF",
"'. c #C5BBC1",
"]. c #D9BFC3",
"[. c #CEC2C9",
"{. c #D4C2C2",
"}. c #D2C0C8",
"|. c #DBC7CE",
" X c #D6CACE",
".X c #D9C9CE",
"XX c #DAC0C3",
"oX c #D6CAD1",
"OX c #DACAD2",
"+X c #D7CBD9",
"@X c #E3C5CD",
"#X c #E2CACB",
"$X c #E1CCD7",
"%X c #E0C6D2",
"&X c None",
/* pixels */
"&X&X&X&X&X&X&X&X&X&X&X&X&X&X&X&X&X&X&X&X&X&X&X&X&X&X&X&X&X&X&X&X&X&X&X&X&X&X&X&X&X&X&X&X&X&X&X&X&X&X",
"&X&X&X&X&X&X&X&X&X&X&X&X&X&X&X&X&X&X&X&X&X&X&X&X&X&X&X&X&X&X&X&X&X&X&X&X&X&X&X&X&X&X&X&X&X&X&X&X&X&X",
"&X&X&X&X&X&X&X&X&X&X&X&X&X&X&X&X&X&X&X&X&X&X&X&X&X&X&X&X&X&X&X&X&X&X&X&X&X&X&X&X&X&X&X&X&X&X&X&X&X&X",
"&X&X&X&X&X&X&X&X&X&X&X&X&X&X&X&X&X&X&X&X&X&X&X&X&X&X&X&X&X&X&X&X&X&X&X&X&X&X&X&X&X&X&X&X&X&X&X&X&X&X",
"&X&X&X&X&X&X&X&X&X&X&X&X&X&X&X&X&X&X&X&X&X&X&X&X&X&X&X&X&X&X&X&X&X&X&X&X&X&X&X&X&X&X&X&X&X&X&X&X&X&X",
"&X&X&X&X&X&X&X&X&X&X&X&X&X&X&X&X&X&X&X&X&X&X&X&X&X&X&X&X&X&X&X&X&X&X&X&X&X&X&X&X&X&X&X&X&X&X&X&X&X&X",
"&X&X&X&X&X&X&X&X&X&X&X&X&X&X&X&X&X&X&X&X&X&X&X&Xy y y r r r r r r r u &X&X&X&X&X&X&X&X&X&X&X&X&X&X&X",
"&X&X&X&X&X&X&X&X&X&X&X&X&X&X&X&X&X&X&X&X&XN V p < 4 > > $ o o r > o o t C &X&X&X&X&X&X&X&X&X&X&X&X&X",
"&X&X&X&X&X&X&X&X&X&X&X&X&X&X&X&X&X&X&Xu t * $ > $ 7 a.b.c.c.c.c.c.l.o.X t d &X&X&X&X&X&X&X&X&X&X&X&X",
"&X&X&X&X&X&X&X&X&X&X&X&X&X&X&X&X&X: - + + < > $ # 8.^.$XOX$X$XOXOX}.B.%.o = &X&X&X&X&X&X&X&X&X&X&X&X",
"&X&X&X&X&X&X&X&X&X&X&X&X&X&X&X&XC * O i n 2 o q =.Z.[..X.X.X.X.X XoXOXH.#.> * C &X&X&X&X&X&X&X&X&X&X",
"&X&X&X&X&X&X&X&X&X&X&X&X&X&X&XB = < 3 Q { F + z J.I.'..X.X.X X.X XoXoXOXY.U r ; &X&X&X&X&X&X&X&X&X&X",
"&X&X&X&X&X&X&X&X&X&X&X&X&X&X&Xr + n ! [ } D + ^ Z.I.].oX X.XoX.XoXOX|.oX XR.U = = &X&X&X&X&X&X&X&X&X",
"&X&X&X&X&X&X&X&X&X&X&X&X&XV > , i ! } } } T o z C.E.).OXoXoXOXOX|.OXoX|.oX[.n.J * : &X&X&X&X&X&X&X&X",
"&X&X&X&X&X&X&X&X&X&X&X&X( t o 1 E } } } } T o z C.E.).OX+X+XOXOXOXoXoX.X.X|.'.X.$ ; &X&X&X&X&X&X&X&X",
"&X&X&X&X&X&X&X&X&X&X&X; = * i E } } } } } D + z C.Q.).b.y.y.p.p.p.T.OX.X|.|.[.X.o ; &X&X&X&X&X&X&X&X",
"&X&X&X&X&X&X&X&X&X&X&X7 * + S { } } } ! } D o z Z.I.{.y.. X . . # B.oXoXoXOX[.X.o ; &X&X&X&X&X&X&X&X",
"&X&X&X&X&X&X&X&X&X&X&X> a + F | | } } } { D + z Z.I.XXi.O t / c q n.oXoXOX%X'.X.o ; &X&X&X&X&X&X&X&X",
"&X&X&X&X&X&X&X&X&X&X* < Q n G | } } } } | D o ^ Z.E._.y.o l h.h.j F.OX X].T.m.( % u &X&X&X&X&X&X&X&X",
"&X&X&X&X&X&X&X&X&X&X* < I m F { } } } } [ F 4 J N.I.Q.8.O c j.f.g F.#X@XJ.h w r * &X&X&X&X&X&X&X&X&X",
"&X&X&X&X&X&X&X&X&X&Xr < I ! ! [ ! } | [ | F < 8 / V.D.-.o r k k r z.W.(.S.1   , > M &X&X&X&X&X&X&X&X",
"&X&X&X&X&X&X&X&X&X&Xr < Q { R R } } | ,.2.,.U > # O.M.-.% o X X = l.W./.A.w d.s $ m &X&X&X&X&X&X&X&X",
"&X&X&X&X&X&X&X&X&X&X* < Q [ W D T ! 4.7.w.w.3.U 7 # $.e.s.r.r.g.l.U._.XXS.k k.g % u &X&X&X&X&X&X&X&X",
"&X&X&X&X&X&X&X&X&X&Xr < E } } W T { w.t.t.0.u.3.U 8 X &.v.~.~..X$X$XOX@XN.w d.h q &X&X&X&X&X&X&X&X&X",
"&X&X&X&X&X&X&X&X&X&X* < F [ } } | :.2.<.<.>.1.0.3.K 7 $ $.x.x.H.L.L.P.B.r.7 # d &X&X&X&X&X&X&X&X&X&X",
"&X&X&X&X&X&X&X&X&X&Xr 4 2 E } }  .5.@.t 7 < P 6.0.0.H = 5 5 t y 3 1 t 1 8 t 7 &X&X&X&X&X&X&X&X&X&X&X",
"&X&X&X&X&X&X&X&X&X&Xr < Q m T [ ;.6.3.f o o H t.0.0.6.U r r r r r < * 4 * - &X&X&X&X&X&X&X&X&X&X&X&X",
"&X&X&X&X&X&X&X&X&X&Xr < Q ! D D ;.w.0.f $ > H t.t.0.t.2.<.<.1.<.>.S < 4 V &X&X&X&X&X&X&X&X&X&X&X&X&X",
"&X&X&X&X&X&X&X&X&X&X- < ' [ W W ..w.7.S * + p >.0.0.0.0.0.0.t.t.0.P + y &X&X&X&X&X&X&X&X&X&X&X&X&X&X",
"&X&X&X&X&X&X&X&X&X&X- < i ' [ | | 4.5.S o 4 S 1.6.1.,.>.1.0.0.t.0.H o = &X&X&X&X&X&X&X&X&X&X&X&X&X&X",
"&X&X&X&X&X&X&X&X&X&XN * 4 n W [ | :.4.p > o P 0.0.>.;.;.1.0.1.1.1.V * & &X&X&X&X&X&X&X&X&X&X&X&X&X&X",
"&X&X&X&X&X&X&X&X&X&X&XV y < m ! ..5.;.y < + F 5.5.7.w.w.w.5.;.@.~ a + & &X&X&X&X&X&X&X&X&X&X&X&X&X&X",
"&X&X&X&X&X&X&X&X&X&X&X&XN - r i { 0.9.H y i G @.;.5.w.5.6.5.5.1.p + y &X&X&X&X&X&X&X&X&X&X&X&X&X&X&X",
"&X&X&X&X&X&X&X&X&X&X&X&X&Xd * r i @.5.3.1.2.2.9.5.w.:. . .{ ] i < r p &X&X&X&X&X&X&X&X&X&X&X&X&X&X&X",
"&X&X&X&X&X&X&X&X&X&X&X&X&X&X; - < i { 9.0.q.0.q.w.w.5.5.,.E 3 + - &X&X&X&X&X&X&X&X&X&X&X&X&X&X&X&X&X",
"&X&X&X&X&X&X&X&X&X&X&X&X&X&X&XZ < < p h ` K ' ` I P P Q F a 4 * B &X&X&X&X&X&X&X&X&X&X&X&X&X&X&X&X&X",
"&X&X&X&X&X&X&X&X&X&X&X&X&X&X&X&X- 7 > $ $ $ o o o , , , , o = &X&X&X&X&X&X&X&X&X&X&X&X&X&X&X&X&X&X&X",
"&X&X&X&X&X&X&X&X&X&X&X&X&X&X&XZ r r o d d N d V f 8 o > y V B &X&X&X&X&X&X&X&X&X&X&X&X&X&X&X&X&X&X&X",
"&X&X&X&X&X&X&X&X&X&X&X&X&X&X&XZ - + * &X&X&X&X&X&Xu * - ; &X&X&X&X&X&X&X&X&X&X&X&X&X&X&X&X&X&X&X&X&X",
"&X&X&X&X&X&X&X&X&X&X&X&X&X&X&X( v v N &X&X&X&X&X&Xb v b A &X&X&X&X&X&X&X&X&X&X&X&X&X&X&X&X&X&X&X&X&X",
"&X&X&X&X&X&X&X&X&X&X&X&X&X&X&X&X_ _ &X&X&X&X&X&X&X&X_ &X&X&X&X&X&X&X&X&X&X&X&X&X&X&X&X&X&X&X&X&X&X&X",
"&X&X&X&X&X&X&X&X&X&X&X&X&X&X&X&X&X&X&X&X&X&X&X&X&X&X&X&X&X&X&X&X&X&X&X&X&X&X&X&X&X&X&X&X&X&X&X&X&X&X",
"&X&X&X&X&X&X&X&X&X&X&X&X&X&X&X&X&X&X&X&X&X&X&X&X&X&X&X&X&X&X&X&X&X&X&X&X&X&X&X&X&X&X&X&X&X&X&X&X&X&X",
"&X&X&X&X&X&X&X&X&X&X&X&X&X&X&X&X&X&X&X&X&X&X&X&X&X&X&X&X&X&X&X&X&X&X&X&X&X&X&X&X&X&X&X&X&X&X&X&X&X&X",
"&X&X&X&X&X&X&X&X&X&X&X&X&X&X&X&X&X&X&X&X&X&X&X&X&X&X&X&X&X&X&X&X&X&X&X&X&X&X&X&X&X&X&X&X&X&X&X&X&X&X",
"&X&X&X&X&X&X&X&X&X&X&X&X&X&X&X&X&X&X&X&X&X&X&X&X&X&X&X&X&X&X&X&X&X&X&X&X&X&X&X&X&X&X&X&X&X&X&X&X&X&X",
"&X&X&X&X&X&X&X&X&X&X&X&X&X&X&X&X&X&X&X&X&X&X&X&X&X&X&X&X&X&X&X&X&X&X&X&X&X&X&X&X&X&X&X&X&X&X&X&X&X&X",
"&X&X&X&X&X&X&X&X&X&X&X&X&X&X&X&X&X&X&X&X&X&X&X&X&X&X&X&X&X&X&X&X&X&X&X&X&X&X&X&X&X&X&X&X&X&X&X&X&X&X",
"&X&X&X&X&X&X&X&X&X&X&X&X&X&X&X&X&X&X&X&X&X&X&X&X&X&X&X&X&X&X&X&X&X&X&X&X&X&X&X&X&X&X&X&X&X&X&X&X&X&X",
"&X&X&X&X&X&X&X&X&X&X&X&X&X&X&X&X&X&X&X&X&X&X&X&X&X&X&X&X&X&X&X&X&X&X&X&X&X&X&X&X&X&X&X&X&X&X&X&X&X&X"
};
