/* XPM */
static char *result[] = {
/* columns rows colors chars-per-pixel */
"50 50 10 1 ",
"  c black",
". c gray11",
"X c gray16",
"o c #3C3C3C",
"O c #565656",
"+ c #4A5462",
"@ c #7C7C7C",
"# c #6D758D",
"$ c #8B93AF",
"% c #B2B2B2",
/* pixels */
"++++++++++++++++++++++++++++++++++++++++++++++++++",
"+############++###########################++####++",
"++++++++++++++++++++++++++++++++++++++++++++++++++",
"++++++++++++++++++++++++++++++++++++++++++++++++++",
"+#++$$$$$$$$$$$$$$$$$$$$$$$$#++#$$$$$$$$$$$$$$$$++",
"+#++#########################++#################++",
"+#++#########################++#################++",
"++++++++++++++++++++++++++++++++++++++++++++++++++",
"++++++++++++++++++++++++++++++++++++++++++++++++++",
"+$$$$$$$$$$$$$$$$$$$#     $$$$$$$$$$$$$$$$$$#++#++",
"+#################### %%%  ##################++#++",
"+#################### %%%%%  ################++#++",
"+++++++++++++++++++++ %%%%@%  ++++++++++++++++++++",
"+++++++++++++++++++++ %%@@@@%  +++++++++++++++++++",
"+$$$$$$$$#++#$$$$$$$$ %%@@@@O%  ##++#$$$$$$$$$$$++",
"+#########++######### %%%@@@@@@ ##++############++",
"+#########++######### %%%@@@@@@  #++############++",
"+++++++++++++++++++++ @%%%%%@O@@ +++++++++++++++++",
"+$$$$$$$$$$$$$$$$$### @@@@@OO@@%% $$$$$$$$$$#++#++",
"+$$$$$$$$$$$$$$$$$### @@@@OOOO@%% $$$$$$$$$$#++#++",
"+#################### %%%%%%@@@@  ###########++#++",
"+#################### @@@@@@%@@@  ###########++#++",
"++++++++++++++++++++  OO@@..%@@@@ ++++++++++++++++",
"+$$$$##++#$$$$$$$$$$ %@@@%.%%@@@@ $$$$$$$$$$$$$$++",
"+$$$$##++#$$$$$$$$$$ %@o%oX.@o@o% $$$$$$$$$$$$$$++",
"+######++###########  %oo%.@O@o%% ##############++",
"+######++############ %o%o..@%o%% ##############++",
"+++++++++++++++++++++ %OoO%%@%%%  ++++++++++++++++",
"+$$$$$$$$$$$$##++#$$$ %ooo%%@%%% $$$+###########++",
"+$$$$$$$$$$$$##++#$$$ %OoO%%@%%% $$$+###########++",
"+##############++#### %%%%%%@%% ####+##$$$$$$$$$++",
"+++++++++++++++++++++  %%%%%%   ++++++++++++++++++",
"++++++++++++++++++++++        ++++++++++++++++++++",
"+$##+##$$$$$$$$$$$$$$$$$++##$$$$$$$$$$$$$$$$+##$++",
"+$##+##$$$$$$$$$$$$$$$$$++##$$$$$$$$$$$$$$$$+##$++",
"+###+###################++##################+###++",
"++++++++++++++++++++++++++++++++++++++++++++++++++",
"++++++++++++++++++++++++++++++++++++++++++++++++++",
"+$$$$$$$$$$$$$$$$#++$$$$$$$$$$$$$$##+$$$$$$$$$$$++",
"+$$$$$$$$$$$$$$$$#++$$$$$$$$$$$$$$##+$$$$$$$$$$$++",
"+#################++################+###########++",
"++++++++++++++++++++++++++++++++++++++++++++++++++",
"++++++++++++++++++++++++++++++++++++++++++++++++++",
"++$$$$$$$$$$$$$$$$$$#++$$$$$$$$$$$$$$##+##$$$$$$++",
"++###################++################+########++",
"++###################++################+########++",
"++++++++++++++++++++++++++++++++++++++++++++++++++",
"++++++++++++++++++++++++++++++++++++++++++++++++++",
"+$$$$##++$$$$$$$$$$$$$$$$$$$#++#$$$$$$$$$$$$$$$$++",
"++++++++++++++++++++++++++++++++++++++++++++++++++"
};
