/* XPM */
static char *result[] = {
/* columns rows colors chars-per-pixel */
"50 50 3 1 ",
"  c #4A5462",
". c #6D758D",
"X c #8B93AF",
/* pixels */
"                                                  ",
"                                                  ",
"............ ..............................  .....",
"                                                  ",
"                                                  ",
" XXXXXXXXXXXXXXXXXXXXXXXXXX..  ..XXXXXXXXXXXXXXXXX",
" ............................  ...................",
" ............................  ...................",
"                                                  ",
"                                                  ",
"XXXXXXXXXXXXXXXXXXX.  ..XXXXXXXXXXXXXXXXXXXXX.. ..",
"....................  ......................... ..",
"....................  ......................... ..",
"                                                  ",
"XXXXXX..  ..XXXXXXXXXXXXXXXXXXXXX.  ..XXXXXXXXXXXX",
"XXXXXX..  ..XXXXXXXXXXXXXXXXXXXXX.  ..XXXXXXXXXXXX",
"........  ........................  ..............",
"........  ........................  ..............",
"                                                  ",
"XXXXXXXXXXXXXXXXX...  XXXXXXXXXXXXXXXXXXXXXXX.. ..",
"XXXXXXXXXXXXXXXXX...  XXXXXXXXXXXXXXXXXXXXXXX.. ..",
"....................  ......................... ..",
"                                                  ",
"                                                  ",
"XXX.. ..XXXXXXXXXXXXXXXXXXXXX  ..XXXXXXXXXXXXXXXXX",
"..... .......................  ...................",
"..... .......................  ...................",
"                                                  ",
"                                                  ",
"XXXXXXXXXXXX.  ..XXXXXXXXXXXXXXXXXXX  ............",
".............  .....................  ..XXXXXXXXXX",
".............  .....................  ..XXXXXXXXXX",
"                                                  ",
".  ..XXXXXXXXXXXXXXXXXXX  .XXXXXXXXXXXXXXXXXX  .XX",
".  ..XXXXXXXXXXXXXXXXXXX  .XXXXXXXXXXXXXXXXXX  .XX",
".  .....................  ...................  ...",
".  .....................  ...................  ...",
"                                                  ",
"XXXXXXXXXXXXXXX..  XXXXXXXXXXXXXXX..  XXXXXXXXXXXX",
"XXXXXXXXXXXXXXX..  XXXXXXXXXXXXXXX..  XXXXXXXXXXXX",
".................  .................  ............",
"                                                  ",
"                                                  ",
"XXXXXXXXXXXXXXXXXXX.  XXXXXXXXXXXXXXXX.. ..XXXXXXX",
"XXXXXXXXXXXXXXXXXXX.  XXXXXXXXXXXXXXXX.. ..XXXXXXX",
"....................  .................. .........",
"                                                  ",
"                                                  ",
"XXX.. XXXXXXXXXXXXXXXXXXXXX..  ..XXXXXXXXXXXXXXXXX",
"                                                  "
};
