/* XPM */
static char *result[] = {
/* columns rows colors chars-per-pixel */
"47 50 181 2 ",
"   c #1A1B25",
".  c #1C1D2D",
"X  c #1D1D32",
"o  c #1D1E3A",
"O  c #291F22",
"+  c #221C2F",
"@  c #231C33",
"#  c #291C34",
"$  c #251D39",
"%  c #2B1D3A",
"&  c #311C3F",
"*  c #1C212D",
"=  c #1C2133",
"-  c #1D223A",
";  c #23212C",
":  c #28212B",
">  c #2E2223",
",  c #232134",
"<  c #292234",
"1  c #23213B",
"2  c #2D253B",
"3  c #23283D",
"4  c #2C2D3B",
"5  c #32233E",
"6  c #312E3D",
"7  c #39313F",
"8  c #1B1C42",
"9  c #311E40",
"0  c #1C2143",
"q  c #212543",
"w  c #2F2040",
"e  c #262A48",
"r  c #332542",
"t  c #3A2C42",
"y  c #3A2947",
"u  c #23304E",
"i  c #2E3549",
"p  c #373247",
"a  c #3B3244",
"s  c #3A3B43",
"d  c #3D3C4C",
"f  c #262D56",
"g  c #23265D",
"h  c #263551",
"j  c #293751",
"k  c #2F385C",
"l  c #3F3D50",
"z  c #333C5E",
"x  c #272A64",
"c  c #2E326F",
"v  c #323667",
"b  c #353861",
"n  c #313073",
"m  c #313877",
"M  c #33307D",
"N  c #38367F",
"B  c #402F45",
"V  c #403146",
"C  c #413B4D",
"Z  c #49384F",
"A  c #423B51",
"S  c #4C335E",
"D  c #4C3C5E",
"F  c #4A3760",
"G  c #4D3863",
"H  c #3F404B",
"J  c #374074",
"K  c #3D4973",
"L  c #3E407C",
"P  c #3B4B7A",
"I  c #43424D",
"U  c #4D4556",
"Y  c #4E4559",
"T  c #4D4B5B",
"R  c #494B55",
"E  c #514557",
"W  c #514E5B",
"Q  c #514559",
"!  c #4E525B",
"~  c #4B5256",
"^  c #53545D",
"/  c #56585F",
"(  c #534C61",
")  c #565662",
"_  c #5B5464",
"`  c #575863",
"'  c #5D5D66",
"]  c #675E6E",
"[  c #606169",
"{  c #6D6C75",
"}  c #736A7B",
"|  c #352E83",
" . c #2E338A",
".. c #343388",
"X. c #3B3399",
"o. c #3E418F",
"O. c #3D4580",
"+. c #3B4694",
"@. c #474C87",
"#. c #435884",
"$. c #515787",
"%. c #484F9B",
"&. c #424897",
"*. c #4E529F",
"=. c #4F5B9B",
"-. c #445493",
";. c #525A97",
":. c #57649B",
">. c #7B7A81",
",. c #4D57A7",
"<. c #4951A9",
"1. c #4F5BA9",
"2. c #535DA4",
"3. c #545BAC",
"4. c #5251AB",
"5. c #5263A5",
"6. c #5464AB",
"7. c #5864AF",
"8. c #5868AA",
"9. c #546AA9",
"0. c #4E64B1",
"q. c #5265B2",
"w. c #5964B3",
"e. c #5269B2",
"r. c #927F97",
"t. c #848796",
"y. c #8B8293",
"u. c #878992",
"i. c #8D8C95",
"p. c #9B839B",
"a. c #9A99A2",
"s. c #A8ABAF",
"d. c #A5A6AB",
"f. c #AEAEB1",
"g. c #ADB3B5",
"h. c #BCBBBF",
"j. c #B2B3C0",
"k. c #C5B4CA",
"l. c #C3B6C6",
"z. c #CFBBD3",
"x. c #D1BAD3",
"c. c #DCBDDB",
"v. c #C9CDD1",
"b. c #DAC0D7",
"n. c #D5C3D9",
"m. c #D3C8D7",
"M. c #D6D7DB",
"N. c #DAD5DB",
"B. c #DADEDD",
"V. c #E7C2DF",
"C. c #DECCE3",
"Z. c #D6CDE1",
"A. c #DED6E1",
"S. c #DBDDE2",
"D. c #E3C5E4",
"F. c #E2CAE5",
"G. c #E8CCE5",
"H. c #EDCCEA",
"J. c #E3D4E6",
"K. c #E8D3E7",
"L. c #E9D8E7",
"P. c #EAD4EA",
"I. c #E7DAEA",
"U. c #F1D1EC",
"Y. c #E2E3E5",
"T. c #E5E4E9",
"R. c #E9E6EA",
"E. c #EDEEED",
"W. c #EDE4F1",
"Q. c #EEEDF1",
"!. c #F3ECF5",
"~. c #F9EDF7",
"^. c #FAEDFB",
"/. c #F2F2F3",
"(. c #F9F9F6",
"). c #F7F6FA",
"_. c #FBF4FC",
"`. c #F7F8FA",
"'. c #FEFEFE",
"]. c #F8F4F5",
"[. c None",
/* pixels */
"[.[.[.[.[.[.[.[.[.[.[.[.[.[.[.[.[.[.[.[.[.[.[.[.[.[.[.[.[.[.[.[.[.[.[.[.[.[.[.[.[.[.[.[.[.[.[.",
"[.[.[.[.[.[.[.[.[.[.[.[.[.[.[.[.[.[.[.[.[.[.[.[.[.[.[.[.[.[.[.[.[.[.[.[.[.[.[.[.[.[.[.[.[.[.[.",
"[.[.[.[.[.[.[.[.[.[.[.[.[.[.[.[.[.[.[.[.[.[.[.[.[.[.[.[.[.[.[.[.[.[.[.[.[.[.[.[.[.[.[.[.[.[.[.",
"[.[.[.[.[.[.[.[.[.[.[.[.[.[.[.[.[.[.[.[.[.[.[.[.[.[.[.[.[.[.[.[.[.[.[.[.[.[.[.[.[.[.[.[.[.[.[.",
"[.[.[.[.[.[.[.[.[.[.[.[.[.[.[.[.[.[.[.[.[.[.[.[.[.[.[.[.[.[.[.[.[.[.[.[.[.[.[.[.[.[.[.[.[.[.[.",
"[.[.[.[.[.[.[.[.[.[.[.[.[.[.[.[.[.9 % # # % 2 [.[.[.[.[.[.[.[.[.[.[.[.[.[.[.[.[.[.[.[.[.[.[.[.",
"[.[.[.[.[.[.[.[.[.[.[.[.[.[.[.[.r # @ ; ; = $ $ [.[.[.r r w r r [.[.[.[.[.[.[.[.[.[.[.[.[.[.[.",
"[.[.[.[.[.[.[.[.[.[.[.[.[.[.[.% @ 2 i.g.g.^ + % [.[.[.$ = * + # $ [.[.[.[.[.[.[.[.[.[.[.[.[.[.",
"[.[.[.[.[.[.[.[.[.[.[.[.[.[.5 @ 4 a.T.'.'.{ + 5 [.[.[.@ p t.y.t @ $ [.[.[.[.[.[.[.[.[.[.[.[.[.",
"[.[.[.[.[.[.[.[.[.[.[.[.[.[.@ 4 u.!.'.(.d.C + & [.[.[.# l Z.G.p.a o [.[.[.[.[.[.[.[.[.[.[.[.[.",
"[.[.[.[.[.[.[.[.[.[.[.[.[.[.@ I B.'.].s.H . 2 [.[.[.[.r p r.D.G.R o [.[.[.[.[.[.[.[.[.[.[.[.[.",
"[.[.[.[.[.[.[.[.[.[.[.[.[.[.+ I R.'.E.~ . 2 [.[.[.[.[.[.+ 7 x.D.Y @ [.[.[.[.[.[.[.[.[.[.[.[.[.",
"[.[.[.[.[.[.[.[.[.[.[.[.[.[.@ I R.'.E.! . [.[.[.[.[.[.[.+ a z.C.Y @ [.[.[.[.[.[.[.[.[.[.[.[.[.",
"[.[.[.[.[.[.[.[.[.[.[.[.[.[.X I T.'.E.! @ [.[.[.[.[.[.[.< a z.C.U @ [.[.[.[.[.[.[.[.[.[.[.[.[.",
"[.[.[.[.[.[.[.[.[.[.[.[.[.[.X I T.'.Q.^ . [.[.[.[.[.[.[.$ a x.D.Y + [.[.[.[.[.[.[.[.[.[.[.[.[.",
"[.[.[.[.[.[.[.[.[.[.[.[.[.[.X d m._.W.] < $ a [.[.[.[.$ , Y c.D.U @ [.[.[.[.[.[.[.[.[.[.[.[.[.",
"[.[.[.[.[.[.[.[.[.[.[.[.[.[.X A n.P.P.n._ 6 a V B a a 6 R l.H.D.Y @ [.[.[.[.[.[.[.[.[.[.[.[.[.",
"[.[.[.[.[.[.[.[.[.[.[.[.[.[.X A n.H.H.J.A.M.M.N.N.N.M.M.B.!.U.D.Y . [.[.[.[.[.[.[.[.[.[.[.[.[.",
"[.[.[.[.[.[.[.[.[.[.[.[.[.[.X A c.H.K.!.'.'.'.'.'.'.'.'.'.'.^.J.U @ [.[.[.[.[.[.[.[.[.[.[.[.[.",
"[.[.[.[.[.[.[.[.[.[.[.[.[.[.. l c.U.!._.'.'.'.'.'.'.'.'.'.'.'.W.W @ [.[.[.[.[.[.[.[.[.[.[.[.[.",
"[.[.[.[.[.[.[.[.[.[.[.[.[.[.. l c.U._.'.'.'.'.'.'.'.'.'.'.'.'./.W + [.[.[.[.[.[.[.[.[.[.[.[.[.",
"[.[.[.[.[.[.[.[.[.[.[.[.[.[.. l c.U._.'.'.'.'.(.'.'.'.'.'.'.'.!.W @ [.[.[.[.[.[.[.[.[.[.[.[.[.",
"[.[.[.[.[.[.[.[.[.[.[.[.[.[.X d c.U._.'.'._.j.u.i.i.s.(.'.'.'./.^ @ [.[.[.[.[.[.[.[.[.[.[.[.[.",
"[.[.[.[.[.[.[.[.[.[.[.[.[.[.. l c.U._.'.'._.u.  *   ' (.'./.f.a.s @ [.[.[.[.[.[.[.[.[.[.[.[.[.",
"[.[.[.[.[.[.[.[.[.[.[.[.[.[.X l c.U.).'.'.'.>.  * . [ ).'.Y.s   + , [.[.[.[.[.[.[.[.[.[.[.[.[.",
"[.[.[.[.[.[.[.[.[.[.[.[.[.[.. A c.P._.'.'.).>.. X X ' /.'.Y.s . = $ [.[.[.[.[.[.[.[.[.[.[.[.[.",
"[.[.[.[.[.[.[.[.[.[.[.[.[.[.@ Z c.K.).'._.W.}   . . _ J._.A.a . , @ [.[.[.[.[.[.[.[.[.[.[.[.[.",
"[.[.[.[.[.[.[.[.[.[.[.[.[.[.@ C b.K.^._.W.I.r.C I s } J.L.m.W d 1 @ [.[.[.[.[.[.[.[.[.[.[.[.[.",
"[.[.[.[.[.[.[.[.[.[.[.[.[.[.X d k.J.P.^._._.W.Y.Y.Y.R.).(.).Y.j.l @ [.[.[.[.[.[.[.[.[.[.[.[.[.",
"[.[.[.[.[.[.[.[.[.[.[.[.[.[.$ 1 Y k.G.L.^.'.'.'.'.'.'.'.'.'.S.) , % [.[.[.[.[.[.[.[.[.[.[.[.[.",
"[.[.[.[.[.[.[.[.[.[.[.[.[.[.[.% $ Q k.A.J.N.R./././././.Q.v.` < @ [.[.[.[.[.[.[.[.[.[.[.[.[.[.",
"[.[.[.[.[.[.[.[.[.[.[.[.[.[.[.[.$ @ U ( W W ^ / / / ) ^ ) R , % [.[.[.[.[.[.[.[.[.[.[.[.[.[.[.",
"[.[.[.[.[.[.[.[.[.[.[.[.[.[.[.[.[., . X X . * * . . . . . X $ [.[.[.[.[.[.[.[.[.[.[.[.[.[.[.[.",
"[.[.[.[.[.[.[.[.[.[.[.[.[.[.[.[.> ; 8 x J P P P k X e N x = @ [.[.[.[.[.[.[.[.[.[.[.[.[.[.[.[.",
"[.[.[.[.[.[.[.[.[.[.[.[.[.[.[.[.> . g +.2.6.e.e.P X j 6.&.$ $ [.[.[.[.[.[.[.[.[.[.[.[.[.[.[.[.",
"[.[.[.[.[.[.[.[.[.[.[.[.[.[.[.[.; - O.6.q.w.q.8.K . j 6.2.f 1 r [.[.[.[.[.[.[.[.[.[.[.[.[.[.[.",
"[.[.[.[.[.[.[.[.[.[.[.[.[.[.[.# , f ,.6.1.<.1.9.K . h 9.5.P - < [.[.[.[.[.[.[.[.[.[.[.[.[.[.[.",
"[.[.[.[.[.[.[.[.[.[.[.[.[.[.a < 0 m 2.6.+. .%.;.z X u #.5.=.q < [.[.[.[.[.[.[.[.[.[.[.[.[.[.[.",
"[.[.[.[.[.[.[.[.[.[.[.[.[.[.# = g | 3.q.+.+.@.k - X o u :.=.q < [.[.[.[.[.[.[.[.[.[.[.[.[.[.[.",
"[.[.[.[.[.[.[.[.[.[.[.[.[.[.@ 1 | X.4.q.w.;.z = * X o 4 $.*.q : [.[.[.[.[.[.[.[.[.[.[.[.[.[.[.",
"[.[.[.[.[.[.[.[.[.[.[.[.[.[.@ q n | ..-.;.v - * * @ @ ; e c q # [.[.[.[.[.[.[.[.[.[.[.[.[.[.[.",
"[.[.[.[.[.[.[.[.[.[.[.[.[.[.@ o - - 1 3 3 = * , 1 % @ ; = - $ % [.[.[.[.[.[.[.[.[.[.[.[.[.[.[.",
"[.[.[.[.[.[.[.[.[.[.[.[.[.[.# @ @ @ X * = , @ % [.t + * . , # % [.[.[.[.[.[.[.[.[.[.[.[.[.[.[.",
"[.[.[.[.[.[.[.[.[.[.[.[.[.[.[.[.[.[., * ; [.[.[.[.[.* . 2 [.[.[.[.[.[.[.[.[.[.[.[.[.[.[.[.[.[.",
"[.[.[.[.[.[.[.[.[.[.[.[.[.[.[.[.[.[.w , % [.[.[.[.[.$ @ 9 [.[.[.[.[.[.[.[.[.[.[.[.[.[.[.[.[.[.",
"[.[.[.[.[.[.[.[.[.[.[.[.[.[.[.[.[.[.S D S [.[.[.[.[.F G S [.[.[.[.[.[.[.[.[.[.[.[.[.[.[.[.[.[.",
"[.[.[.[.[.[.[.[.[.[.[.[.[.[.[.[.[.[.[.[.[.[.[.[.[.[.[.[.[.[.[.[.[.[.[.[.[.[.[.[.[.[.[.[.[.[.[.",
"[.[.[.[.[.[.[.[.[.[.[.[.[.[.[.[.[.[.[.[.[.[.[.[.[.[.[.[.[.[.[.[.[.[.[.[.[.[.[.[.[.[.[.[.[.[.[.",
"[.[.[.[.[.[.[.[.[.[.[.[.[.[.[.[.[.[.[.[.[.[.[.[.[.[.[.[.[.[.[.[.[.[.[.[.[.[.[.[.[.[.[.[.[.[.[.",
"[.[.[.[.[.[.[.[.[.[.[.[.[.[.[.[.[.[.[.[.[.[.[.[.[.[.[.[.[.[.[.[.[.[.[.[.[.[.[.[.[.[.[.[.[.[.[."
};
