/* XPM */
static char *_1b49dbbeac74c79bd021ce65028f7a11MDg4TKfd2u8bHAj[] = {
/* columns rows colors chars-per-pixel */
"50 50 5 1 ",
"  c None",
". c #ED1C24",
"X c #FF7E00",
"o c #FFC20E",
"O c #FFF200",
/* pixels */
"..O.O.OOOO.OOOOOOOOOOOO.OOO.OO.OOOOOOOOO.OO.OO.OO.",
"..OOOOOOOOOOOOO.O.OO.OOOO..OO.OO.O.OOOOO..OO..OOO.",
"..OOOOO.OOOOOOOOOOOOO..OOOO.OOOOOOOOOOOO.OOOOO...O",
"..OOOOOOOOOOOO.OOOOOO.O.OOO.O.O..O.OO.OOO.OOOO.O..",
"...O..OOOOO..OOOOOOO..OOOOOOOO.OOOOOOOOOOOOOO..O..",
"..OOOOOOOOOOOOOO.OOOOO.O.O..O.O.OOOOOOOO..OO..OOOO",
"..OOO.O.OOOOOOO.O.OO.OOOO.O.OOOOOOOOOOOO.OOO.O.OO.",
".OOOO.OOOOOOOOOOOO.O.O....O.OO.OOOOOOOOOO.OO.OOOO.",
".OO.OOOO.OOOOO..OOO..OOO.O.OO....OOOOOOOOOOOO.OOOO",
".OO.OO.OO..OOOOO..OOO...O..........O.O.OOO..OOOOOO",
"...OOOOOOOOOO..OO......... .........OOO.OO.OOOO..O",
".O....OO.OOOO.........oooo.o........O.OOOOO.OOO.O.",
".OOOOOOOOO.........oooooooooooooo......OO.OOOO...O",
"..OOOO.O.OO......oooooooXooXoooo ooooo..OOO.OOOOO.",
"O.OOOOOO.......ooooooooXoXXXXXoooooooooOOOO.O.O.OO",
"OO.OOOOO..O... oooooXXXXXXXXXXXXooooooooO.O..OOOOO",
"OOOOOOOOOOO.ooooooooXXOXOOOOOOOXXooooooooO.OOOOOOO",
".OOOOOOOOOO..ooooooXXXXXOOOOOOOOXXoooooooo.OOOOOOO",
"OOOOO.OOOO.. ooooooXXXXOOOOOOOXOXXXooooooooOOOO.O.",
".OOOOOO.OOOOooooooXXXOXXOXOOOOOXOOXXooooo.oOOOOOOO",
"OOOOOO.O..OOooooooXXXOOOOOXOOXOOXOXXooooooOoOOOOOO",
"OOO.OOOOO.OooooooXXXXOXOOOOOXOOOXOXXooooooOOOOOOOO",
"OOOOO.OO.OOooooooXXXXXXXOOOOOOOOOXXXXoooooOoOO..O.",
".OOOOOOOO..ooooooXXXXOOOOOOOXXOOOOXoooooooOoO.OOOO",
"OOOOO.OO..O..oooooXXXXXOOXOOOOOOOOOXoooo ooOOOOOOO",
"OOOO.OOOO....oooooXXXXOXOOOXOOOXOXXXooooooOOOOO.O.",
"OOOOOO.O.OO..ooooooXXXXOOXXOOXXXXXoooooooooO.OOOO.",
".OO.OOOO..O...ooooooXXXXXOOOOOOOXXXoooooooOOOOOO.O",
"O.O..O.OOOO....ooooooXXXoXXOXXXXXXXoooooooOO..OOOO",
"OO.O.OO.OOO....o oooooXoXXXXXoXXXXoooooo...O.O.O..",
".OOOOOOOOO..... .ooooooXXXXoXoooXooooo.o...O..OOOO",
".OOOOOOO.OO.......oooooooXoXooXooooooo.....OOOOOO.",
".OOOOOOOOOOOOO......ooooooooooooo..o.....OOOOO.OOO",
"..OOOOOOOOOO.O..........o .ooo ........OOO.OOOOO.O",
".OO.OOOOOOOOO..........................OOOOOOOOOOO",
"OO.OOOO.OOOOOOOOO....................O.OOOOOOOOOOO",
"..OOOOOOOOOOOOOOO.OO........ ......OOOOOOOOOOOOOOO",
".OOOOOOOOOOOO.O.OOO.OOO.........O.O.OOO.OOOOOOOOOO",
".O.OOOOOOOOOO.OOO...OOO..O.O...OOOO.OOOOOOOOOOOOOO",
".OOOOOOOOOOOOOOO.OOOOOOO.OO.OOOOOOOOOOOOOOOOOOOOOO",
"...OOOOOOOOOOOOOOOOOOOOOOO.OOO.O.OOOO.OOOOOOOOOOOO",
"..OOOOOOOOOOOOOOOO.OOOOOOO.OOOOOOOOOOOOOOOOOOOOO.O",
"..OOOOOOOOOOOOOOOOOOOOOOOOOOOOOOOOOOOOOOOOOOOOOO.O",
"...OOOOOOOOOOOOOOOOOOOOOOOOOOOOOOOOOOOOOO.OOOO.OO.",
"....OOOOOO.OOOOOOOOOOOOOOOOOOOOOOOOOOOOOOOOOOOOOO.",
"....OOOOOOOOOOOOOOOOOOOOOOOOO.OOOOOOOOOOOOOOO.O...",
"......O.OOOOO.OOOOOOOO.OO.OOOOOOOOOOOOOO.O...OOOO.",
"........OOOOO.OOOOOOOOOOO..OO.OOOOOOOOOOOOOOOOOOO.",
"........OOO..OOOOOOOO.OOOOOOOOOOO.OOOOO.OOOOOOO...",
"...........OOOO.OOOOO.OOOOOOOO.OOOOO....O.OOOO...."
};
