/* XPM */
static char *_ac500163cb04300f03e2968af09c75eHVFt6y2DKb81FiBw[] = {
/* columns rows colors chars-per-pixel */
"50 50 6 1 ",
"  c None",
". c #ED1C24",
"X c #4D6DF3",
"o c #00B7EF",
"O c #709AD1",
"+ c #99D9EA",
/* pixels */
"OOoOoOooooOooooooooooooOoooOooOoooooooooOoo.oo.ooO",
"OOoooooooooooooOoOooOooooOOooOooOoOoooooOOooOOoooO",
"OOoooooOoooooooooooooOOooooOooooooooooooOoooooOOOo",
"OOooooooooooooOooooooOoOoooOoOoOOo.oo.ooo.ooooOoOO",
"OOOoOOoooooOOoooooooOOooooooooOooooooooooooooOOoOO",
"OOooooooooooooooOoooooOoOoOOoOoOooooooooOOooOOoooo",
"OOoooOo.oooooooOoOooOooooOoOooooooooooooOoooOo.ooO",
"OooooOooooooooooooOoOoOOOOoOooOoooooooooo.ooOooooO",
"OooOooooOoooooOOoooOOoooOoOooOOOOoooooooooooo.oooo",
"OooOooOooOOoooooOOoooOOOoOOOOOOOOOOo.o.oooOOoooooo",
"OOOooooooooooOOooOOOOOOOOO OOOOOOOOOoooOooOooooOOo",
"OoOOOOooOooooOOOOOOOOO++++.+OOOOOOOOoOoooooOoooOo.",
"OoooooooooOOOOOOOOO++++++++++++++OOOOOOooOooooOOOo",
"OOooooOoOooOOOOOO+++++++X++X++++ +++++OOoooOoooooO",
"oOooooooOOOOOOO++++++++XOXXXXX+++++++++ooooOo.oOoo",
"ooOoooooOOoOOO +++++XXXXXXXXXXXX++++++++oOoOOooooo",
"oooooooooooO++++++++XXoXoooooooXX++++++++oOooooooo",
"OooooooooooOO++++++XXXXXooooooooXX++++++++Oooooooo",
"oooooOooooOO ++++++XXXXoooooooXoXXX++++++++ooooOoO",
"OooooooOoooo++++++XXXoXXoXoooooXooXX+++++.+ooooooo",
"ooooooOoOOoo++++++XXXoooooXooXooXoXX++++++oOoooooo",
"oooOoooooOo++++++XXXXoXoooooXoooXoXX++++++oooooooo",
"oooooOooOoo++++++XXXXXXXoooooooooXXXX+++++oOooOOoO",
"OooooooooOO++++++XXXXoooooooXXooooX+++++++oOoOoooo",
"oooooOooOOoOO+++++XXXXXooXoooooooooX++++ ++ooooooo",
"ooooOooooOOOO+++++XXXXoXoooXoooXoXXX++++++ooooo.oO",
"ooooooOoOooOO++++++XXXXooXXooXXXXX+++++++++o.ooooO",
"OooOooooOOoOOO++++++XXXXXoooooooXXX+++++++ooooooOo",
"oOoOOoOooooOOOO++++++XXXOXXoXXXXXXX+++++++ooOOoooo",
"ooOoOooOoooOOOO+ +++++XOXXXXX+XXXX++++++OOOoOo.oOO",
"OoooooooooOOOOO O++++++XXXXOX+++X+++++O+OOOoOOoooo",
"Oooooooo.ooOOOOOOO+++++++X+X++X+++++++OOOOOooooooO",
"OoooooooooooooOOOOOO+++++++++++++OO+OOOOOooooo.ooo",
"OOoooooooooo.oOOOOOOOOOO+ O+++ OOOOOOOOoooOooooo.o",
"Ooo.oooooooooOOOOOOOOOOOOOOOOOOOOOOOOOOooooooooooo",
"oo.oooo.oooooooooOOOOOOOOOOOOOOOOOOOOoOooooooooooo",
"OOoooooooooooooooOooOOOOOOOO OOOOOOooooooooooooooo",
"OooooooooooooOo.oooOoooOOOOOOOOOoOoOoooOoooooooooo",
"Oo.ooooooooooOoooOOOoooOOoOoOOOooooOoooooooooooooo",
"Oooooooooooooooo.oooooooOoo.oooooooooooooooooooooo",
"OOOoooooooooooooooooooooooOoooOo.ooooOoooooooooooo",
"OOoooooooooooooooo.oooooooOoooooooooooooooooooooOo",
"OOooooooooooooooooooooooooooooooooooooooooooooooOo",
"OOOooooooooooooooooooooooooooooooooooooooOooooOooO",
"OOOOoooooo.ooooooooooooooooooooooooooooooooooooooO",
"OOOOoooooooooooooooooooooooooOoooooooooooooooOoOOO",
"OOOOOOoOoooooOoooooooo.ooOooooooooooooooOoOOOooooO",
"OOOOOOOOoooooOoooooooooooOOooOoooooooooooooooooooO",
"OOOOOOOOoooOOooooooooOoooooooooooOoooooOoooooooOOO",
"OOOOOOOOOOOooooOoooooOooooooooOoooooOOOOoOooooOOOO"
};
