/* XPM */
static char *result[] = {
/* columns rows colors chars-per-pixel */
"50 50 10 1 ",
"  c gray44",
". c #7C7C7C",
"X c #00FFE5",
"o c gray51",
"O c gray55",
"+ c #9B9B9B",
"@ c gray67",
"# c #AFAFAF",
"$ c #91FFF5",
"% c white",
/* pixels */
"+.............OOO####@@@   ###++++++++++++++++++++",
"+.............OOO####@@@   ###++++++++++++++++++++",
"+.............OOO####@@@   ###++++++++++++++++++++",
"++++#############++++++++++##########...++++++++++",
"++++#############++++++++++##########...++++++++++",
"++++#############++++++++++##########...++++++++++",
"+...+++++++$$$++++++++++###...+++++++$$$$$$+++++++",
"+...+++++++$$$++++++++++###...+++++++$$$$$$+++++++",
"+...+++++++$$$++++++++++###...+++++++$$$$$$+++++++",
"+###++++++++++...++++$$$XXX+++.......ooo.......+++",
"+###++++++++++...++++$$$XXX+++.......ooo.......+++",
"+###++++++++++...++++$$$XXX+++.......ooo.......+++",
"+#######......................#################...",
"+#######......................#################...",
"+#######......................#################...",
"+#######......................#################...",
"....++++++++++%%%$$$$++++++...%%%%$$$++++++....+++",
"....++++++++++%%%$$$$++++++...%%%%$$$++++++....+++",
"....++++++++++%%%$$$$++++++...%%%%$$$++++++....+++",
"####++++%%%$$$XXXXXXXXXX###+++XXXX%%%##########...",
"####++++%%%$$$XXXXXXXXXX###+++XXXX%%%##########...",
"####++++%%%$$$XXXXXXXXXX###+++XXXX%%%##########...",
"+++++++++++++++++++++++++++...++++++++++++++++++++",
"+++++++++++++++++++++++++++...++++++++++++++++++++",
"+++++++++++++++++++++++++++...++++++++++++++++++++",
"+%%%$$$$...###++++++++++%%%$$$####################",
"+%%%$$$$...###++++++++++%%%$$$####################",
"+%%%$$$$...###++++++++++%%%$$$####################",
"+++++++++++++++++++++$$$XXXXXXXXXX+++++++++####+++",
"+++++++++++++++++++++$$$XXXXXXXXXX+++++++++####+++",
"+++++++++++++++++++++$$$XXXXXXXXXX+++++++++####+++",
"++++####+++XXX#######+++...+++##########++++++++++",
"++++####+++XXX#######+++...+++##########++++++++++",
"++++####+++XXX#######+++...+++##########++++++++++",
".+++++++++++++++++++++++######++++$$$XXX#######...",
".+++++++++++++++++++++++######++++$$$XXX#######...",
".+++++++++++++++++++++++######++++$$$XXX#######...",
"+.......................$$$%%%$$$$XXXXXXXXX....+++",
"+.......................$$$%%%$$$$XXXXXXXXX....+++",
"+.......................$$$%%%$$$$XXXXXXXXX....+++",
"+.......................$$$%%%$$$$XXXXXXXXX....+++",
"+#######%%%$$$#######++++++XXXXXXX+++++++++#######",
"+#######%%%$$$#######++++++XXXXXXX+++++++++#######",
"+#######%%%$$$#######++++++XXXXXXX+++++++++#######",
"++++++++++++++++++++++++++++++#######+++++++++++++",
"++++++++++++++++++++++++++++++#######+++++++++++++",
"++++++++++++++++++++++++++++++#######+++++++++++++",
"+++++++++++++++++#######++++++++++++++++++++++++++",
"+++++++++++++++++#######++++++++++++++++++++++++++",
"+++++++++++++++++#######++++++++++++++++++++++++++"
};
